<svg xmlns="http://www.w3.org/2000/svg" viewBox="0 0 55.29 64.97"><defs><style>.cls-1{fill:#fff;}.cls-2,.cls-4{fill:#d2d3d5;}.cls-2{opacity:0.5;}.cls-3{fill:#3c3c3c;}</style></defs><title>资源 6</title><g id="图层_2" data-name="图层 2"><g id="Layer_1" data-name="Layer 1"><path class="cls-1" d="M49.91,30.44C49.91,18.15,45,0,27.65,0S5.39,18.15,5.39,30.44C5.39,38-2.82,50.83,1,59.61c1,2.29,2.81-8,5.8-6.4,1.86,1,4.17,10,7,10.57,1.88.39,4-7.48,6.36-7.28S24.92,65,27.65,65s5.19-8.28,7.43-8.47,4.48,7.67,6.36,7.28c2.86-.6,5.17-9.59,7-10.57,3-1.58,4.8,8.69,5.8,6.4C58.12,50.83,49.91,38,49.91,30.44Z"/><path class="cls-2" d="M49.91,30.44c0-10-3.28-23.92-13.87-28.72,8.34,5.7,11,19.67,11,28C47,36.31,54.15,43.39,50.8,51c-.87,2-2.45-6.94-5-5.57-1.62.85-3.63,12.23-6.11,12.75-1.64.35-3.47-10.06-5.54-9.89S30,59.25,27.65,59.25s-4.52-10.76-6.47-10.93-3.9,10.24-5.53,9.89c-2.49-.52-4.5-11.9-6.11-12.75C6.94,44.09,5.36,53,4.49,51,1.14,43.39,8.28,36.31,8.28,29.75c0-8.36,2.63-22.33,11-28C8.67,6.52,5.39,20.43,5.39,30.44,5.39,38-2.82,50.83,1,59.61c1,2.29,2.81-8,5.8-6.4,1.86,1,4.17,10,7,10.57,1.88.39,4-7.48,6.36-7.28S24.92,65,27.65,65s5.19-8.28,7.43-8.47,4.48,7.67,6.36,7.28c2.86-.6,5.17-9.59,7-10.57,3-1.58,4.8,8.69,5.8,6.4C58.12,50.83,49.91,38,49.91,30.44Z"/><path class="cls-3" d="M41.67,18.93c-.07-.74-7.34-8.81-8.06-8.6s-.43,6,2.2,8C37.89,20,41.77,20,41.67,18.93Z"/><path class="cls-4" d="M35.55,19.18c-2.15-1.7-2.88-5.63-2.78-7.61-.7.3-.39,5.95,2.22,8,1.73,1.36,4.7,1.6,5.6,1A7.88,7.88,0,0,1,35.55,19.18Z"/><path class="cls-3" d="M13.67,17c.35-.66,10.16-5.31,10.75-4.83s-1.89,5.65-5.12,6.55C16.75,19.45,13.16,18,13.67,17Z"/><path class="cls-4" d="M19.12,19.38a8.18,8.18,0,0,1-5.38-.63c.59.88,3.44,1.8,5.56,1.21,2.6-.73,4.72-4.23,5.13-5.81C23.45,16.12,21.46,18.72,19.12,19.38Z"/><path class="cls-3" d="M22.9,26.52c0-2.62,2.13-5.39,4.75-5.39s4.74,2.77,4.74,5.39.23,10-4.74,10S22.9,29.14,22.9,26.52Z"/><path class="cls-4" d="M27.65,37.26c-4.77,0-5.12-6.26-5.14-9.66,0,3-.08,10.54,5.14,10.54s5.15-7.5,5.14-10.54C32.77,31,32.41,37.26,27.65,37.26Z"/></g></g></svg>