<svg xmlns="http://www.w3.org/2000/svg" viewBox="0 0 64.39 65.21"><defs><style>.cls-1{isolation:isolate;}.cls-2{fill:#323333;}.cls-3,.cls-6{fill:#d2d3d5;}.cls-4,.cls-6{mix-blend-mode:multiply;}.cls-5{fill:#fff;mix-blend-mode:screen;}.cls-7{fill:#e8503c;}.cls-8{fill:#3c3c3c;}</style></defs><title>资源 9</title><g class="cls-1"><g id="图层_2" data-name="图层 2"><g id="Layer_1" data-name="Layer 1"><path class="cls-2" d="M64.31,37.12c-1.73-4.36-17.26-8.07-32.11-8.07h0c-14.85,0-30.38,3.71-32.11,8.07-1.29,3.25,13.62,5.55,15.1,12.51s-4.29,9.56-1.92,11.25,11.92,3.46,18.93,3.46h0c7,0,16.56-1.77,18.93-3.46s-3.4-4.29-1.92-11.25S65.6,40.37,64.31,37.12Z"/><path class="cls-3" d="M7.25,21.46c-.34,1,4.33,15.54,5.39,15.7s4-7.39,1.8-11.58C12.72,22.28,7.75,20,7.25,21.46Z"/><path class="cls-3" d="M57.14,21.46c.35,1-4.33,15.54-5.38,15.7s-4-7.39-1.81-11.58C51.67,22.28,56.65,20,57.14,21.46Z"/><path class="cls-3" d="M44,46.45c0-6.49-23.51-6.49-23.51,0,0,11,1,18.76,11.75,18.76S44,57.2,44,46.45Z"/><path class="cls-3" d="M52,35.89c0,12.18-11.13,18-19.81,18s-19.82-5.85-19.82-18S17.09,6.45,32.2,6.45,52,23.71,52,35.89Z"/><g class="cls-4"><path class="cls-3" d="M57.14,21.46c-.29-.85-2.13-.41-4,.77C52,26.42,51.88,31.83,50.89,33c-.35,6.27-6,12.49-10.37,15.26C40.16,56.91,38.22,63,28.83,63a14.3,14.3,0,0,1-5.1-.82c1.75,2,4.41,3.06,8.46,3.06,9.39,0,11.34-6.06,11.69-14.7A16.76,16.76,0,0,0,52,37C53.34,35.36,57.46,22.39,57.14,21.46Z"/></g><path class="cls-5" d="M20.93,21.73c-1.23,1.61-2.89,2.41-3.71,1.78s-.49-2.44.74-4.05,2.9-2.41,3.72-1.78S22.16,20.12,20.93,21.73Z"/><path class="cls-5" d="M17.42,25.56A1.4,1.4,0,1,1,16,24.15,1.4,1.4,0,0,1,17.42,25.56Z"/><path class="cls-6" d="M28.73,37.69c0-2.39,1.14-2.39,1.14,0s-.2,8.05-.57,8.05S28.73,40.09,28.73,37.69Z"/><path class="cls-7" d="M29.58,36.1c-.33-.85-11.55-7.92-12.34-7.43s1.47,7.14,5.26,8.71C25.48,38.61,30.06,37.34,29.58,36.1Z"/><path class="cls-6" d="M35.67,37.69c0-2.39-1.14-2.39-1.14,0s.2,8.05.57,8.05S35.67,40.09,35.67,37.69Z"/><path class="cls-7" d="M34.82,36.1c.33-.85,11.56-7.92,12.34-7.43s-1.46,7.14-5.26,8.71C38.92,38.61,34.34,37.34,34.82,36.1Z"/><path class="cls-8" d="M32.2,49.74a4.79,4.79,0,0,1-2.68-1.47c.89,1.45,2,2.59,2.68,2.59s1.78-1.14,2.68-2.58A4.83,4.83,0,0,1,32.2,49.74Z"/><path class="cls-8" d="M32.21,54.64a29.25,29.25,0,0,1-7.83-1.46c2.62,1.44,5.76,2.58,7.82,2.58s5.21-1.14,7.82-2.58A29.19,29.19,0,0,1,32.21,54.64Z"/><path class="cls-8" d="M35.73,54.47a8.05,8.05,0,0,0,.59,3.09,8,8,0,0,0,.61-3.09Z"/><path class="cls-8" d="M27.47,54.47a8,8,0,0,0,.61,3.09,8.2,8.2,0,0,0,.6-3.09Z"/><path class="cls-8" d="M21.18,16.45c4.74,0,8.78,7.43,11,7.43s6.29-7.43,11-7.43c7.39,0,7.56,10.5,7.66,16.56,2.54-5.1,2.94-14.67,2.94-24,0-12-43.27-12-43.27,0,0,9.58.4,19.16,2.95,24.22C13.57,27.1,13.72,16.45,21.18,16.45Z"/></g></g></g></svg>